<svg aria-hidden="true" version="1.1" xmlns="http://www.w3.org/2000/svg"
  xmlns:xlink="http://www.w3.org/1999/xlink">
  <symbol id="zzz-arrow-right" width="21" height="21" viewBox="0 0 21 21" fill="none" >
    <path fill-rule="evenodd" clip-rule="evenodd" d="M3.5 10.5C3.5 10.0858 3.83579 9.75 4.25 9.75L14.8879 9.75L10.7302 5.79062C10.4316 5.50353 10.4223 5.02875 10.7094 4.73017C10.9965 4.43159 11.4713 4.42228 11.7698 4.70937L17.2698 9.95937C17.4169 10.1008 17.5 10.296 17.5 10.5C17.5 10.704 17.4169 10.8992 17.2698 11.0406L11.7698 16.2906C11.4713 16.5777 10.9965 16.5684 10.7094 16.2698C10.4223 15.9713 10.4316 15.4965 10.7302 15.2094L14.8879 11.25L4.25 11.25C3.83579 11.25 3.5 10.9142 3.5 10.5Z" fill="currentColor"/>
  </symbol>

  <symbol width="28" height="28" viewBox="0 0 28 28" fill="none" id="zzz-hamburger">
    <path fill-rule="evenodd" clip-rule="evenodd" d="M3.5 7.875C3.5 7.39175 3.89175 7 4.375 7H23.625C24.1082 7 24.5 7.39175 24.5 7.875C24.5 8.35825 24.1082 8.75 23.625 8.75H4.375C3.89175 8.75 3.5 8.35825 3.5 7.875ZM3.5 14C3.5 13.5168 3.89175 13.125 4.375 13.125H23.625C24.1082 13.125 24.5 13.5168 24.5 14C24.5 14.4832 24.1082 14.875 23.625 14.875H4.375C3.89175 14.875 3.5 14.4832 3.5 14ZM13.125 20.125C13.125 19.6418 13.5168 19.25 14 19.25H23.625C24.1082 19.25 24.5 19.6418 24.5 20.125C24.5 20.6082 24.1082 21 23.625 21H14C13.5168 21 13.125 20.6082 13.125 20.125Z" fill="currentColor"/>
  </symbol>

  <symbol width="20" height="20" viewBox="0 0 20 20" fill="none" id="zzz-envelop">
    <path d="M1.25 7.22425V14.375C1.25 15.7557 2.36929 16.875 3.75 16.875H16.25C17.6307 16.875 18.75 15.7557 18.75 14.375V7.22425L11.3102 11.8026C10.5067 12.297 9.49327 12.297 8.68976 11.8026L1.25 7.22425Z" fill="currentColor"/>
    <path d="M18.75 5.75652V5.625C18.75 4.24429 17.6307 3.125 16.25 3.125H3.75C2.36929 3.125 1.25 4.24429 1.25 5.625V5.75652L9.34488 10.738C9.74664 10.9852 10.2534 10.9852 10.6551 10.738L18.75 5.75652Z" fill="currentColor"/>
  </symbol>

  <symbol width="20" height="20" viewBox="0 0 20 20" fill="none" id="zzz-phone">
    <path fill-rule="evenodd" clip-rule="evenodd" d="M1.25 3.75C1.25 2.36929 2.36929 1.25 3.75 1.25H4.89302C5.61 1.25 6.23498 1.73796 6.40887 2.43354L7.33037 6.11952C7.48284 6.72942 7.25495 7.37129 6.75202 7.74849L5.674 8.557C5.56206 8.64096 5.53772 8.7639 5.56917 8.84974C6.51542 11.4329 8.5671 13.4846 11.1503 14.4308C11.2361 14.4623 11.359 14.4379 11.443 14.326L12.2515 13.248C12.6287 12.7451 13.2706 12.5172 13.8805 12.6696L17.5665 13.5911C18.262 13.765 18.75 14.39 18.75 15.107V16.25C18.75 17.6307 17.6307 18.75 16.25 18.75H14.375C7.12626 18.75 1.25 12.8737 1.25 5.625V3.75Z" fill="currentColor"/>
  </symbol>

  <symbol width="20" height="20" viewBox="0 0 20 20" fill="none" id="zzz-pin">
    <path fill-rule="evenodd" clip-rule="evenodd" d="M9.61646 18.6259C9.64163 18.6405 9.66141 18.6517 9.67542 18.6596L9.69869 18.6726C9.88441 18.7745 10.1148 18.7738 10.3007 18.6729L10.3246 18.6596C10.3386 18.6517 10.3584 18.6405 10.3835 18.6259C10.4339 18.5967 10.5058 18.5542 10.5963 18.4985C10.7771 18.3872 11.0323 18.223 11.3372 18.0076C11.9459 17.5776 12.7581 16.9395 13.5721 16.1061C15.1922 14.4474 16.875 11.9551 16.875 8.75C16.875 4.95304 13.797 1.875 10 1.875C6.20304 1.875 3.125 4.95304 3.125 8.75C3.125 11.9551 4.80777 14.4474 6.42788 16.1061C7.24188 16.9395 8.05409 17.5776 8.66282 18.0076C8.96771 18.223 9.22295 18.3872 9.40375 18.4985C9.49419 18.5542 9.56612 18.5967 9.61646 18.6259ZM10 11.25C11.3807 11.25 12.5 10.1307 12.5 8.75C12.5 7.36929 11.3807 6.25 10 6.25C8.61929 6.25 7.5 7.36929 7.5 8.75C7.5 10.1307 8.61929 11.25 10 11.25Z" fill="currentColor"/>
  </symbol>

  <symbol id="zzz-facebook" width="20" height="20" fill="none" viewBox="0 0 20 20">
    <path fill="currentColor" d="M20 10c0-5.523-4.477-10-10-10S0 4.477 0 10c0 4.991 3.657 9.128 8.438 9.878v-6.987h-2.54V10h2.54V7.797c0-2.506 1.492-3.89 3.777-3.89 1.093 0 2.238.195 2.238.195v2.46h-1.26c-1.243 0-1.63.771-1.63 1.563V10h2.773l-.443 2.89h-2.33v6.988C16.343 19.128 20 14.991 20 10z"/>
  </symbol>

  <symbol id="zzz-twitter" width="20" height="20" fill="none" viewBox="0 0 20 20">
    <path fill="currentColor" d="M6.292 18.125c7.545 0 11.673-6.253 11.673-11.673 0-.176-.004-.356-.012-.532A8.332 8.332 0 0 0 20 3.796a8.09 8.09 0 0 1-2.355.645 4.125 4.125 0 0 0 1.804-2.27 8.247 8.247 0 0 1-2.605.996A4.108 4.108 0 0 0 9.85 6.91a11.654 11.654 0 0 1-8.456-4.284A4.108 4.108 0 0 0 2.664 8.1a4.108 4.108 0 0 1-1.86-.512v.051a4.102 4.102 0 0 0 3.293 4.024 4.078 4.078 0 0 1-1.851.07 4.111 4.111 0 0 0 3.831 2.851A8.23 8.23 0 0 1 0 16.282a11.64 11.64 0 0 0 6.292 1.843z"/>
  </symbol>

  <symbol id="zzz-linkedin" width="20" height="20" fill="none" viewBox="0 0 20 20">
    <path fill="currentColor" d="M18.52 0H1.477C.66 0 0 .645 0 1.441v17.114C0 19.352.66 20 1.477 20H18.52c.816 0 1.48-.648 1.48-1.441V1.44C20 .645 19.336 0 18.52 0zM5.934 17.043h-2.97V7.496h2.97v9.547zM4.449 6.195a1.72 1.72 0 1 1-.006-3.439 1.72 1.72 0 0 1 .006 3.44zm12.594 10.848h-2.965v-4.64c0-1.106-.02-2.532-1.543-2.532-1.543 0-1.777 1.207-1.777 2.453v4.719H7.797V7.496h2.844v1.305h.039c.394-.75 1.363-1.543 2.804-1.543 3.004 0 3.559 1.976 3.559 4.547v5.238z"/>
  </symbol>
</svg>
