<svg aria-hidden="true" version="1.1" xmlns="http://www.w3.org/2000/svg"
  xmlns:xlink="http://www.w3.org/1999/xlink">
  <symbol id="zzz-arrow-right" width="21" height="21" viewBox="0 0 21 21" fill="none" >
    <path fill-rule="evenodd" clip-rule="evenodd" d="M3.5 10.5C3.5 10.0858 3.83579 9.75 4.25 9.75L14.8879 9.75L10.7302 5.79062C10.4316 5.50353 10.4223 5.02875 10.7094 4.73017C10.9965 4.43159 11.4713 4.42228 11.7698 4.70937L17.2698 9.95937C17.4169 10.1008 17.5 10.296 17.5 10.5C17.5 10.704 17.4169 10.8992 17.2698 11.0406L11.7698 16.2906C11.4713 16.5777 10.9965 16.5684 10.7094 16.2698C10.4223 15.9713 10.4316 15.4965 10.7302 15.2094L14.8879 11.25L4.25 11.25C3.83579 11.25 3.5 10.9142 3.5 10.5Z" fill="currentColor"/>
  </symbol>

  <symbol width="28" height="28" viewBox="0 0 28 28" fill="none" id="zzz-hamburger">
    <path fill-rule="evenodd" clip-rule="evenodd" d="M3.5 7.875C3.5 7.39175 3.89175 7 4.375 7H23.625C24.1082 7 24.5 7.39175 24.5 7.875C24.5 8.35825 24.1082 8.75 23.625 8.75H4.375C3.89175 8.75 3.5 8.35825 3.5 7.875ZM3.5 14C3.5 13.5168 3.89175 13.125 4.375 13.125H23.625C24.1082 13.125 24.5 13.5168 24.5 14C24.5 14.4832 24.1082 14.875 23.625 14.875H4.375C3.89175 14.875 3.5 14.4832 3.5 14ZM13.125 20.125C13.125 19.6418 13.5168 19.25 14 19.25H23.625C24.1082 19.25 24.5 19.6418 24.5 20.125C24.5 20.6082 24.1082 21 23.625 21H14C13.5168 21 13.125 20.6082 13.125 20.125Z" fill="currentColor"/>
  </symbol>
</svg>
